<svg width="720" height="180" viewBox="0 0 720 180" fill="none" xmlns="http://www.w3.org/2000/svg">
  <rect width="720" height="180" fill="white"/>
  <g transform="translate(18 12)">
    <path d="M73 116C90 109 102 96 106 79C109 65 103 49 90 38C74 25 52 23 32 31C15 39 5 54 6 71C7 91 22 106 44 114L47 134C49 145 57 152 67 152H85C95 152 102 144 102 134V118L73 116Z" fill="#0B7A1B"/>
    <path d="M94 90C120 93 141 83 153 62C159 50 161 37 157 25C151 6 132 -4 112 2C94 8 82 23 76 43C70 63 73 80 82 94L94 90Z" fill="#9FD100"/>
    <path d="M86 89C64 89 47 83 35 72C21 59 21 39 35 28C47 18 65 14 86 15C107 16 126 21 141 32C155 42 162 57 161 72C160 87 151 99 134 108C118 116 102 117 86 112V89Z" fill="#F26A00"/>
    <path d="M121 35C127 23 140 18 152 22C161 25 168 32 168 41C176 39 185 41 191 48C196 54 197 63 193 70C188 78 178 82 168 82H140C128 82 118 76 114 67C110 57 112 45 121 35Z" fill="#F57C00"/>
    <path d="M122 39C145 37 160 44 170 57C178 67 181 80 178 93C174 108 163 119 147 125C133 131 120 132 108 127C97 123 89 114 85 103C81 92 81 79 84 68C88 55 97 45 110 41C114 40 118 39 122 39Z" fill="#F04B00"/>
    <path d="M135 43C147 45 156 51 162 61C168 71 170 82 168 93C166 104 160 115 151 124C143 132 133 138 122 141C111 144 102 141 96 132C90 123 88 111 89 98C91 82 95 69 102 58C109 48 120 42 135 43Z" fill="white"/>
    <path d="M177 80C184 79 190 85 190 92C190 103 181 113 170 113C161 113 154 107 154 98C154 88 164 80 177 80Z" fill="#E53B00"/>
    <path d="M170 69C176 63 183 60 191 60C199 60 207 64 214 71L194 82L170 69Z" fill="#F28A00"/>
    <circle cx="162" cy="63" r="6" fill="#C21D00"/>
    <path d="M201 123C216 110 230 106 244 112C256 117 264 128 266 142C268 156 265 168 257 178C250 187 239 192 227 192C214 192 205 188 198 180C191 171 188 161 188 149C188 139 192 130 201 123Z" fill="#0D7F1E" transform="translate(-26 -38)"/>
    <path d="M211 124C226 116 239 117 251 127C261 136 265 149 263 163C261 175 255 184 246 191C238 197 228 199 219 197C210 195 203 190 198 182C193 174 191 165 191 155C191 142 198 131 211 124Z" fill="#1C9D21" transform="translate(-26 -38)"/>
    <path d="M232 143C246 132 261 129 278 136C268 155 252 168 229 175C224 163 225 153 232 143Z" fill="#188E1F" transform="translate(-26 -38)"/>
    <path d="M240 122C257 109 278 106 300 113C294 134 281 149 262 158C249 149 241 137 240 122Z" fill="#A7D300" transform="translate(-26 -38)"/>
    <path d="M247 121C264 120 279 125 292 135C284 147 274 154 261 159C250 151 245 138 247 121Z" fill="#79BF00" transform="translate(-26 -38)"/>
    <path d="M279 154C290 145 302 142 317 145C313 160 305 171 293 178C285 172 280 164 279 154Z" fill="#0A7A18" transform="translate(-26 -38)"/>
    <path d="M69 37C80 16 98 2 124 -4C123 24 111 43 89 54L69 37Z" fill="#0B7A1B"/>
    <path d="M78 38C92 19 108 8 128 5C119 27 106 40 88 47L78 38Z" fill="#8FC700"/>
  </g>
  <g fill="#241F23">
    <path d="M262.145 140.094C249.985 140.094 240.225 136.874 232.865 130.434C225.505 123.914 221.345 115.074 220.385 103.914H241.625C242.665 109.754 245.365 114.394 249.725 117.834C254.085 121.274 259.725 122.994 266.645 122.994C273.165 122.994 278.165 121.714 281.645 119.154C285.205 116.514 286.985 112.974 286.985 108.534C286.985 104.894 285.705 102.014 283.145 99.894C280.665 97.694 276.985 96.014 272.105 94.854L252.245 90.174C243.685 88.134 237.125 84.734 232.565 79.974C228.085 75.214 225.845 69.014 225.845 61.374C225.845 54.774 227.565 48.994 231.005 44.034C234.445 39.074 239.305 35.234 245.585 32.514C251.945 29.714 259.385 28.314 267.905 28.314C279.305 28.314 288.425 31.274 295.265 37.194C302.105 43.034 306.145 50.954 307.385 60.954H286.505C285.465 56.514 283.125 52.914 279.485 50.154C275.845 47.394 271.105 46.014 265.265 46.014C259.425 46.014 254.745 47.214 251.225 49.614C247.785 52.014 246.065 55.354 246.065 59.634C246.065 63.114 247.145 65.914 249.305 68.034C251.545 70.074 254.865 71.594 259.265 72.594L278.765 77.094C288.125 79.254 295.225 82.814 300.065 87.774C304.905 92.734 307.325 99.174 307.325 107.094C307.325 114.014 305.465 120.114 301.745 125.394C298.025 130.594 292.825 134.654 286.145 137.574C279.545 140.254 271.545 140.094 262.145 140.094Z"/>
    <path d="M351.419 140.094C342.859 140.094 336.179 137.774 331.379 133.134C326.659 128.414 324.299 121.414 324.299 112.134V61.734H343.619V109.434C343.619 114.554 344.779 118.314 347.099 120.714C349.499 123.114 352.979 124.314 357.539 124.314C362.579 124.314 366.699 122.854 369.899 119.934C373.099 117.014 374.699 112.794 374.699 107.274V61.734H394.019V138.294H375.419V127.314C373.179 131.154 369.979 134.214 365.819 136.494C361.739 138.934 356.939 140.134 351.419 140.094Z"/>
    <path d="M440.065 140.094C431.505 140.094 424.825 137.774 420.025 133.134C415.305 128.414 412.945 121.414 412.945 112.134V61.734H432.265V109.434C432.265 114.554 433.425 118.314 435.745 120.714C438.145 123.114 441.625 124.314 446.185 124.314C451.225 124.314 455.345 122.854 458.545 119.934C461.745 117.014 463.345 112.794 463.345 107.274V61.734H482.665V138.294H464.065V127.314C461.825 131.154 458.625 134.214 454.465 136.494C450.385 138.934 445.585 140.134 440.065 140.094Z"/>
    <path d="M521.999 138.294H502.679V61.734H521.279V73.614C523.519 69.214 526.799 65.774 531.119 63.294C535.519 60.734 540.719 59.454 546.719 59.454V77.514H541.859C535.339 77.514 530.179 79.154 526.379 82.434C523.139 85.194 521.519 89.174 521.519 94.374L521.999 138.294Z"/>
    <path d="M590.45 140.574C582.77 140.574 576.01 138.934 570.17 135.654C564.33 132.294 559.77 127.574 556.49 121.494C553.21 115.414 551.57 108.334 551.57 100.254C551.57 92.414 553.13 85.514 556.25 79.554C559.45 73.594 563.85 68.954 569.45 65.634C575.13 62.234 581.69 60.534 589.13 60.534C596.73 60.534 603.29 62.194 608.81 65.514C614.33 68.834 618.61 73.474 621.65 79.434C624.77 85.394 626.33 92.214 626.33 99.894V105.654H570.17C570.57 111.574 572.57 116.334 576.17 119.934C579.85 123.454 584.65 125.214 590.57 125.214C594.93 125.214 598.61 124.254 601.61 122.334C604.69 120.334 606.89 117.614 608.21 114.174H626.93C625.17 121.054 621.29 126.814 615.29 131.454C609.37 138.194 601.09 140.574 590.45 140.574ZM570.53 91.734H607.25C606.93 86.694 605.09 82.614 601.73 79.494C598.37 76.294 593.97 74.694 588.53 74.694C583.49 74.694 579.21 76.254 575.69 79.374C572.17 82.414 570.45 86.534 570.53 91.734Z"/>
    <path d="M658.324 138.294H639.004V61.734H657.484V72.234C659.484 68.154 662.484 64.994 666.484 62.754C670.564 60.514 675.324 59.394 680.764 59.394C687.284 59.394 692.604 60.754 696.724 63.474C700.844 66.114 703.724 69.954 705.364 74.994C707.444 70.234 710.644 66.434 714.964 63.594C719.364 60.754 724.604 59.334 730.684 59.334C739.084 59.334 745.524 61.734 750.004 66.534C754.484 71.254 756.724 78.214 756.724 87.414V138.294H737.524V90.114C737.524 79.954 733.164 74.874 724.444 74.874C719.804 74.874 716.004 76.414 713.044 79.494C710.084 82.574 708.604 86.934 708.604 92.574V138.294H689.284V90.114C689.284 79.954 684.924 74.874 676.204 74.874C671.564 74.874 667.764 76.414 664.804 79.494C661.924 82.574 660.484 86.934 660.484 92.574L658.324 138.294Z"/>
  </g>
</svg>
